# xmcd
#
# Track frame offsets: 
#        150
#        12203
#        26718
#        59885
#        79408
#        93405
#        114948
#        145668
#        175630
#        190600
#        209468
#        232280
#
# Disc length: 3600 seconds
#
# Revision: 0
# Processed by: cddbd v1.5.2PL0 Copyright (c) Steve Scherf et al.
# Submitted via: ExactAudioCopyFreeDBPlugin 1.0
#
DISCID=a30e0e0c
DTITLE=Kent Henry - Frontlines (1993)
DYEAR=1993
DGENRE=Praise and Worship
TTITLE0=We Give You All Our Praise
TTITLE1=Step Out In My Glory
TTITLE2=We Receive Your Word
TTITLE3=Frontlines
TTITLE4=The Spirit Says Arise
TTITLE5=Be My Help
TTITLE6=My Help Comes From The Lord
TTITLE7=Prayer Time
TTITLE8=Make A Joyful Noise
TTITLE9=Justo's Song For Jesus
TTITLE10=Flow Through Me
TTITLE11=It's So Good
EXTD=
EXTT0=
EXTT1=
EXTT2=
EXTT3=
EXTT4=
EXTT5=
EXTT6=
EXTT7=
EXTT8=
EXTT9=
EXTT10=
EXTT11=
PLAYORDER=
